<?xml version="1.0" encoding="UTF-8"?>
<svg id="Layer_1" xmlns="http://www.w3.org/2000/svg" version="1.1" viewBox="0 0 400 400">
  <!-- Generator: Adobe Illustrator 29.8.2, SVG Export Plug-In . SVG Version: 2.1.1 Build 3)  -->
  <defs>
    <style>
      .st0 {
        fill: #9ea2a2;
      }

      .st1 {
        fill: #0c2340;
      }

      .st2 {
        fill: #ffd520;
      }
    </style>
  </defs>
  <path class="st0" d="M358,72.2c-25.9-31.3-63.3-48.7-105.1-48.7H85.5L7.8,376.6h142.9c0,0,20.5-85.3,20.5-85.3,19.2,0,69.7,0,69.6,0,47.9.3,87.2-15.9,113.6-46.9,48-52.3,39.6-128.7,3.6-172.1"/>
  <path class="st1" d="M163.9,281.9l-20.5,85.4H19.3c0,0,73.6-334.6,73.6-334.6h159.9c39.8.2,73.9,16.3,98,45.4,35.5,42.8,38.9,113.9-3.5,160.2-26,30.5-64.2,43.9-106.5,43.6h-77s0,0,0,0Z"/>
  <g>
    <path class="st2" d="M309.7,142.2c-.1-.9-.3-1.9-.7-2.6-.6-1-1.8-1.1-2.9-1.1-17.8,0-25.1-7.9-43.7-20-18.7-12-46-19-69.6-19,0,0-21.7,0-21.7,0h-92.9l-1.9,8.5h71.5c3.4,0,6.8,1.2,9.2,3.6,2.9,3,4.3,7.3,2.3,12.7-2.3,6.3-4.1,13.7-4.9,20.5-.6,5.4,6,8.2,9.4,8.2h142.9c2.7,0,3.5,0,3.5-1.3s-.1-6-.6-9.3"/>
    <path class="st2" d="M163,199.6c-2.5-5.3-4.8-11.6-6.2-17.4-1.8-7.4-8-13.4-18.8-13.5H62.9s1.9-8.5,1.9-8.5l243.7.2c2.4,0,1.9,1,1.8,3.7-.1,2.7-.8,7.7-1.2,10.6-.4,2.9-2.8,2.2-5.1,2.3-5.5.1-15.7,1.4-21.6,5.9-10.1,7.6-31.6,20.9-43.7,24.8-13,4.1-61.5,19-75.7-8.4"/>
    <path class="st2" d="M301,184.5c-10.7.8-22,10.5-36.8,19.9-13.9,8.8-41.3,17.3-68.3,18.3H51.2l-1.9,8.5h131.1c3.7,0,7.5,1.1,10.3,3.5,0,0,0,0,0,0,10.8,8.9,24.7,15.3,39.5,19.6,6.6,1.9,18.1-.6,28.3-6.3,25.5-14.4,41.9-41.8,47.2-59.4,1.4-4.6-1.3-4.2-4.8-4"/>
    <path class="st2" d="M236.1,59.7c1.8-.3,8.2-.7,11.8.7,24.2,9.5,47,34.7,56.6,61.4,1.8,5.1,2.3,8.4,0,8.7-11.1,1.2-16.2-4.2-29.3-13.1-13-8.8-25-14.9-41.5-20.1-16.3-5.2-45.9-5.9-49.7-6-3.8-.1-3.3-1.7-1.7-3.4,14.2-14.2,33.3-24.5,53.8-28.2"/>
    <path class="st2" d="M352,151.4c0,1-1,1.6-2.3,1.6s-27.9,0-27.9,0c-3.6,0-3.6-1-3.8-3.1-.1-2-.7-6.1-.8-8.6-.1-2.4-1-5.1,2.2-6.4,7.8-3.3,15.1-10.9,18.4-17.4,1.1-2.2,2.8-5.8,4.7-2.7,6.6,10.5,8.7,23.6,9.4,36.6"/>
    <path class="st2" d="M342.1,201.5c-.5.9-2.3,1.6-2.8.1-4.1-10.9-13.7-18.4-20.4-22.1-2-1.1-2.2-2.4-1.9-4.4.3-2,1.1-8.3,1.2-11,.1-2.1,1-3.6,2.6-3.6h29c1.1,0,1.9.7,2.2,1.7.3,1.3.1,2.6,0,3.9-.3,4.2-.8,8.3-1.7,12.3-1.7,7.9-4.5,15.8-8.2,23"/>
    <path class="st2" d="M266.5,256c-2,.3-6.5-.4.5-4.5,21.1-12.3,39.9-41.1,44.9-57.6,1.9-6.3,2.1-6.6,4.5-5.9,3.2.9,8.3,5.3,12.2,10.7,3.9,5.4,5.6,15.8,3.3,18.8-15.2,20.4-39.3,34.6-65.5,38.5"/>
    <path class="st2" d="M320.2,125.7c-4.9,2.6-5.9,2.2-6.9-1.5-9.2-32.2-36.2-56-47.3-63-2.1-1.3-1.6-2.2,0-2,26.5,3.5,52.4,18,65.5,37.7,7.4,11.3-6.5,26.3-11.2,28.9"/>
  </g>
</svg>