<svg width="50" height="50" viewBox="0 0 50 50" fill="none" xmlns="http://www.w3.org/2000/svg">
<path d="M15.5178 15.7718V11.3069L12.6288 15.7718H8.49236L11.0491 18.2144L7.84382 23.168L13.0299 20.1063L15.5178 22.4829V18.6371L20.3716 15.7718H15.5178Z" fill="#061922"/>
<path d="M15.0977 16.1937V12.7307L12.8572 16.1937H9.54347L11.5915 18.15L9.16688 21.8976L13.0894 19.5815L15.0977 21.4994V18.3962L18.8278 16.1937H15.0977Z" fill="#0050B5"/>
<path d="M14.5156 16.7791V14.7054L13.1735 16.7791H11.0017L12.3439 18.061L11.0017 20.1354L13.1735 18.8535L14.5156 20.1354V18.061L16.6866 16.7791H14.5156Z" fill="white"/>
<path d="M10.1126 26.5735V22.4384L7.43667 26.5735H3.62944L5.98299 28.8205L3 33.4296L7.82625 30.5811L10.1126 32.7645V29.2317L14.6157 26.5735H10.1126Z" fill="#061922"/>
<path d="M9.69167 26.9954V23.8615L7.66431 26.9954H4.68132L6.52535 28.756L4.32306 32.1592L7.88583 30.0564L9.69167 31.781V28.99L13.0711 26.9954H9.69167Z" fill="#0050B5"/>
<path d="M9.13861 27.5516V25.7388L7.96528 27.5516H6.06701L7.24035 28.6717L6.06701 30.4845L7.96528 29.3644L9.13861 30.4845V28.6717L11.0361 27.5516H9.13861Z" fill="white"/>
<path d="M32.8444 12.5681C30.9538 12.5681 29.141 12.967 27.4796 13.7165V9L24.0375 14.3203H19.0936L22.1492 17.2386L21.3028 18.5466V16.7821L17.4337 22.7622H11.7465L15.2612 26.1185L11.0544 32.6203L17.8615 28.6018L18.9859 29.6759C19.0638 30.0549 19.1563 30.4315 19.2655 30.8036H15.1978L18.235 33.6467L14.3117 39.7104L20.862 35.8431C21.0331 35.7472 21.1477 35.8117 21.3433 35.9674C21.386 36.0012 22.2645 36.7277 22.3394 36.7867C23.6365 37.7986 25.6256 39.2447 27.9112 40.1124C29.4894 40.7016 31.1485 41 32.8444 41C40.6498 41 47 34.6226 47 26.7837C47 18.9448 40.6498 12.5673 32.8444 12.5673" fill="#061922"/>
<path d="M32.8444 12.9885C30.7185 12.9885 28.7744 13.4887 27.0594 14.3717V10.4231L24.2651 14.7415H20.1447L22.6915 17.1734L20.8826 19.9697V18.2052L17.6613 23.1834H12.7984L15.8035 26.0541L12.3775 31.3491L17.921 28.0763L19.3694 29.4603C19.4878 30.0625 19.6428 30.6525 19.8369 31.224H16.2611L18.7774 33.58L15.6301 38.4438L20.6489 35.481C20.7719 35.412 20.8949 35.3744 21.0117 35.3744C21.1867 35.3744 21.3807 35.4611 21.6037 35.6391C21.7076 35.7211 22.4654 36.3533 22.5968 36.4553C24.1712 37.6836 25.9976 38.9363 28.0594 39.7204C29.549 40.2766 31.1615 40.5804 32.8444 40.5804C40.4313 40.5804 46.5814 34.4039 46.5814 26.7844C46.5814 19.1649 40.4313 12.9885 32.8444 12.9885Z" fill="#0050B5"/>
<path d="M32.8444 13.7488C30.4824 13.7488 28.2702 14.3855 26.3628 15.4925H26.3124V12.9563L24.6715 15.4925H22.0155L23.6563 17.0598L22.0155 19.5961L22.0185 19.5946C21.2019 20.8328 20.5908 22.219 20.2318 23.705V20.4085L18.0135 23.8362H14.4247L16.6431 25.9544L14.4255 29.3821L18.0142 27.2631L20.1027 29.2585C20.2501 30.0257 20.4656 30.7676 20.7398 31.4802L20.4625 31.9904H18.2014C18.2014 31.9904 19.5703 33.2723 19.7681 33.4572L18.0364 36.1323L20.2631 34.8182C20.9644 34.4231 21.5663 34.6272 22.0797 35.0368C22.3142 35.224 25.1444 37.8216 28.2534 38.9793C29.6842 39.5125 31.2287 39.8186 32.8451 39.8186C40.0135 39.8186 45.8251 33.982 45.8251 26.7829C45.8251 19.5838 40.0135 13.7472 32.8451 13.7472" fill="white"/>
<path d="M24.0994 18.7752C24.974 18.2413 26.1298 17.8799 27.3199 17.8799C32.1202 17.8799 35.5272 22.0602 39.1572 22.4461C38.1855 19 35.8312 16.2873 32.8069 15.3959C31.5809 15.0345 30.2785 15.1112 29.0677 15.5194C27.1427 16.1692 25.4385 17.3015 24.0994 18.7752Z" fill="#2155A5"/>
<path d="M33.9994 14.9555C37.1206 15.9122 39.4344 18.8796 40.4214 22.4285C42.202 22.1584 42.9858 20.888 42.3678 19.728C40.4267 17.0913 37.4277 15.2892 33.9994 14.9555Z" fill="#2155A5"/>
<path d="M22.5632 26.5666C22.5632 26.5666 32.726 26.3188 39.7224 26.2106C39.6942 25.3767 39.6078 24.5673 39.4642 23.7886C34.8977 23.5232 31.5748 18.9639 26.8601 18.9639C24.3568 18.9639 22.6755 20.4438 21.7687 22.5903C21.2791 23.8953 21.0087 25.3076 21.0087 26.7844C21.0087 28.2612 21.2837 29.7027 21.7833 31.0176C22.69 33.1634 24.356 34.6256 26.8593 34.6256C31.574 34.6256 34.8969 30.0671 39.4635 29.8009C39.6071 29.023 39.6934 28.2137 39.7217 27.379C32.7252 27.2708 22.5624 27.023 22.5624 27.023V26.5658L22.5632 26.5666Z" fill="#0050B5"/>
<path d="M40.7247 23.7534C40.8736 24.5489 40.9622 25.3652 40.9928 26.1922C42.4732 26.1722 43.7428 26.1607 44.661 26.1615C44.5693 24.4285 44.114 22.7952 43.357 21.3383C43.3807 22.5113 42.451 23.5079 40.7254 23.7534" fill="#2155A5"/>
<path d="M39.1572 31.1442C35.5272 31.5301 32.1202 35.7104 27.3199 35.7104C26.1519 35.7104 25.0183 35.3613 24.149 34.8435C24.3782 35.0928 24.6158 35.3345 24.8648 35.5631C26.1489 36.7415 27.6935 37.6367 29.4008 38.1569C30.4557 38.4783 31.5847 38.5282 32.6488 38.239C35.7479 37.3966 38.1679 34.6502 39.1572 31.1435" fill="#2155A5"/>
<path d="M42.3983 33.7979C42.9544 32.6563 42.1699 31.4265 40.4222 31.1619C39.4436 34.6778 37.1634 37.6199 34.0865 38.6049C37.4972 38.2482 40.4749 36.4354 42.3983 33.7979Z" fill="#2155A5"/>
<path d="M44.6602 27.4288C43.742 27.4296 42.4724 27.4189 40.992 27.3982C40.9622 28.2252 40.8728 29.0407 40.7239 29.837C42.4457 30.0825 43.3746 31.0752 43.3555 32.2443C44.1064 30.789 44.5685 29.1603 44.661 27.4319C44.661 27.4311 44.6602 27.4304 44.6594 27.4288" fill="#2155A5"/>
</svg>
